<svg width="37" height="62" viewBox="0 0 37 62" fill="none" xmlns="http://www.w3.org/2000/svg">
<g id="&#208;&#160;&#208;&#181;&#209;&#129;&#209;&#131;&#209;&#128;&#209;&#129; 3 9" clip-path="url(#clip0_241_1487)">
<g id="&#208;&#161;&#208;&#187;&#208;&#190;&#208;&#185; 1">
<path id="Vector" d="M18.5487 0L3.00842 27.0515H34.0889L18.5487 0Z" fill="#B9B9B9"/>
<path id="Vector_2" d="M28.1808 16.7033H8.92512L8.05493 14.3759L28.9451 14.5513L28.1808 16.7033Z" fill="white"/>
<path id="Vector_3" d="M33.0727 25.2851L4.09903 25.1556L2.84814 22.8224H34.2263L33.0727 25.2851Z" fill="white"/>
<path id="Vector_4" d="M34.2263 27.0515H3.00842V58.4269H34.2263V27.0515Z" fill="white"/>
<path id="Vector_5" d="M7.39943 53.703H0V62H7.39943V53.703Z" fill="white"/>
<path id="Vector_6" d="M14.7988 53.703H7.39941V62H14.7988V53.703Z" fill="#B9B9B9"/>
<path id="Vector_7" d="M22.1983 53.703H14.7988V62H22.1983V53.703Z" fill="white"/>
<path id="Vector_8" d="M29.6006 53.703H22.2012V62H29.6006V53.703Z" fill="#B9B9B9"/>
<path id="Vector_9" d="M37 53.703H29.6006V62H37V53.703Z" fill="white"/>
<path id="Vector_10" d="M34.2263 52.9752H3.00842V53.7059H34.2263V52.9752Z" fill="#B9B9B9"/>
<path id="Vector_11" d="M37 55.2997H0V55.6305H37V55.2997Z" fill="#B9B9B9"/>
<path id="Vector_12" d="M33.5765 24.2091H3.61525L3.42346 23.8955H33.7253L33.5765 24.2091Z" fill="#B9B9B9"/>
<path id="Vector_13" d="M28.5185 15.7539H8.57012L8.45276 15.4374H28.6302L28.5185 15.7539Z" fill="#B9B9B9"/>
<path id="Vector_14" d="M18.5 51.2116C24.6543 51.2116 29.6435 46.1973 29.6435 40.0119C29.6435 33.8264 24.6543 28.8121 18.5 28.8121C12.3456 28.8121 7.35645 33.8264 7.35645 40.0119C7.35645 46.1973 12.3456 51.2116 18.5 51.2116Z" fill="#B9B9B9"/>
<path id="Vector_15" d="M18.6173 46.9883C22.451 46.9883 25.5588 43.8649 25.5588 40.0119C25.5588 36.1589 22.451 33.0354 18.6173 33.0354C14.7837 33.0354 11.6759 36.1589 11.6759 40.0119C11.6759 43.8649 14.7837 46.9883 18.6173 46.9883Z" stroke="white" stroke-width="6" stroke-miterlimit="10"/>
<path id="Vector_16" d="M18.6174 41.1166C19.2244 41.1166 19.7165 40.622 19.7165 40.0119C19.7165 39.4018 19.2244 38.9072 18.6174 38.9072C18.0103 38.9072 17.5182 39.4018 17.5182 40.0119C17.5182 40.622 18.0103 41.1166 18.6174 41.1166Z" fill="#3C3C3B"/>
<path id="Vector_17" d="M13.4249 31.0216L18.0907 40.8692L19.5763 40.0062L13.4249 31.0216Z" fill="#3C3C3B"/>
<path id="Vector_18" d="M18.6174 47.2991L19.4761 40.0119H17.7587L18.6174 47.2991Z" fill="#3C3C3B"/>
</g>
</g>
<defs>
<clipPath id="clip0_241_1487">
<rect width="37" height="62" fill="white"/>
</clipPath>
</defs>
</svg>
