<svg width="80" height="80" viewBox="0 0 20 20" fill="none" xmlns="http://www.w3.org/2000/svg">
<path d="M0.00012207 0H15V3.92615C15 7.2174 11.8316 9.88548 7.92326 9.88548H7.07682C3.16847 9.88548 0.00012207 7.2174 0.00012207 3.92615V0Z" fill="#707070"/>
<path d="M6.52173 4.94263H8.47823V17.0249H6.52173V4.94263Z" fill="#707070"/>
<path d="M2.60876 17.8196C2.60876 17.3808 3.03121 17.025 3.55232 17.025H11.4477C11.9688 17.025 12.3913 17.3808 12.3913 17.8196V18.6726H2.60876V17.8196Z" fill="#707070"/>
<path fill-rule="evenodd" clip-rule="evenodd" d="M14.0525 3.84436C14.0552 3.9356 14.0565 4.02712 14.0565 4.1189C14.0565 7.85152 11.8514 11.1504 8.47839 13.1423V14.0973C12.3982 12.0036 15.0001 8.31713 15.0001 4.1189C15.0001 4.02714 14.9988 3.93562 14.9963 3.84436H14.0525Z" fill="#707070"/>
<path fill-rule="evenodd" clip-rule="evenodd" d="M14.0525 3.84436C14.0552 3.9356 14.0565 4.02712 14.0565 4.1189C14.0565 7.85152 11.8514 11.1504 8.47839 13.1423V14.0973C12.3982 12.0036 15.0001 8.31713 15.0001 4.1189C15.0001 4.02714 14.9988 3.93562 14.9963 3.84436H14.0525Z" fill="#707070"/>
<path fill-rule="evenodd" clip-rule="evenodd" d="M0.947607 3.84436C0.944955 3.93561 0.943622 4.02714 0.943622 4.11892C0.943622 7.85154 3.14871 11.1504 6.52173 13.1423V14.0973C2.60188 12.0036 6.10352e-05 8.31715 6.10352e-05 4.11892C6.10352e-05 4.02715 0.00130415 3.93563 0.00377703 3.84436H0.947607Z" fill="#707070"/>
</svg>
