<?xml version="1.0" encoding="utf-8"?>
<!-- Generator: Adobe Illustrator 27.6.1, SVG Export Plug-In . SVG Version: 6.00 Build 0)  -->
<svg version="1.1" id="Слой_1" xmlns="http://www.w3.org/2000/svg" xmlns:xlink="http://www.w3.org/1999/xlink" x="0px" y="0px"
	 viewBox="0 0 16 24" style="enable-background:new 0 0 16 24;" xml:space="preserve">
<style type="text/css">
	.st0{fill:#F5C566;}
</style>
<path class="st0" d="M16,5.4V0.1H0v5.2c0,5.3,2.8,10,7,12.6v3.6H3.8c-0.6,0-1,0.5-1,1v1.1h10.4v-1.1c0-0.5-0.4-1-1-1H9V18
	C13.2,15.3,16,10.7,16,5.4z M9,12.6c2.1-0.2,3.9-1.1,5.1-2.6c-1,2.8-2.8,5.1-5.1,6.8V12.6z M1.8,10c1.3,1.5,3.1,2.5,5.1,2.6v4.2
	C4.6,15.1,2.8,12.8,1.8,10z"/>
</svg>
