<?xml version="1.0" encoding="utf-8"?>
<!-- Generator: Adobe Illustrator 27.6.1, SVG Export Plug-In . SVG Version: 6.00 Build 0)  -->
<svg version="1.1" id="Слой_1" xmlns="http://www.w3.org/2000/svg" xmlns:xlink="http://www.w3.org/1999/xlink" x="0px" y="0px"
	 viewBox="0 0 10 14" style="enable-background:new 0 0 10 14;" xml:space="preserve">
<style type="text/css">
	.st0{fill-rule:evenodd;clip-rule:evenodd;fill:#D9D9D9;}
</style>
<path class="st0" d="M5.1,0C2.6,0,0.5,2,0.5,4.6c0,1,0.3,1.9,0.8,2.6L5.1,14l3.7-6.8c0.5-0.8,0.8-1.7,0.8-2.6C9.7,2,7.6,0,5.1,0z
	 M5.1,1.3c1.8,0,3.3,1.5,3.3,3.3S6.9,7.8,5.1,7.8c-0.9,0-1.7-0.4-2.3-1c0,0,0,0,0,0c-0.6-0.6-1-1.4-1-2.3C1.8,2.8,3.3,1.3,5.1,1.3z"
	/>
</svg>
